PathFileType	4	(X/Y/Z)	path1_13_0-574.trc
DataRate	CameraRate	NumFrames	NumMarkers	Units	OrigDataRate	OrigDataStartFrame	OrigNumFrames
30	30	8	22	m	30	71	574
Frame#	Time	Hip			RHip			RKnee			RAnkle			RBigToe			RSmallToe			RHeel			LHip			LKnee			LAnkle			LBigToe			LSmallToe			LHeel			Neck			Head			Nose			RShoulder			RElbow			RWrist			LShoulder			LElbow			LWrist		
		X1	Y1	Z1	X2	Y2	Z2	X3	Y3	Z3	X4	Y4	Z4	X5	Y5	Z5	X6	Y6	Z6	X7	Y7	Z7	X8	Y8	Z8	X9	Y9	Z9	X10	Y10	Z10	X11	Y11	Z11	X12	Y12	Z12	X13	Y13	Z13	X14	Y14	Z14	X15	Y15	Z15	X16	Y16	Z16	X17	Y17	Z17	X18	Y18	Z18	X19	Y19	Z19	X20	Y20	Z20	X21	Y21	Z21	X22	Y22	Z22
72	2.4	-2.5155572783138194	0.8412303958991023	-0.5844824547563154	-2.5215371797924777	0.8025970494843461	-0.5052773520925928	-2.501266762691668	0.47452426504438994	-0.48752272119611284	-2.554721994615144	0.10596917093126382	-0.49921040188652016	-2.364559371899782	0.023221731014507824	-0.4785041283483096	-2.407866835004836	0.024004810586672712	-0.418762987472778	-2.604646260206449	0.03310495702931804	-0.5135964196744736	-2.512993144360943	0.7997139902914674	-0.6684679064430237	-2.5243489500772576	0.4402794685877405	-0.6565689008296582	-2.5563434357203754	0.09980002797224269	-0.6529086215803468	-2.3870960502400815	0.017041286355742445	-0.6658090328708143	-2.4107544640912386	0.02850203709573978	-0.7201391774108311	-2.5970870464800164	0.03447142068801847	-0.6548580471164046	-2.4910337828945646	1.4732054417813611	-0.6104585524716263	-2.458523731056255	1.7176678536322738	-0.5662981541774804	-2.3567303770264902	1.6039671896280685	-0.5873418746098641	-2.5391859572745354	1.3682996234151688	-0.4324166112899362	-2.558979547597217	1.078301631321539	-0.4029534861880397	-2.527818659071229	0.850838276250045	-0.3802255799325856	-2.489822401862458	1.3453195971694019	-0.7801050539047993	-2.5440673787748684	1.0701549739132703	-0.7918923434091069	-2.5429055994239405	0.8340703439631902	-0.7850737141007263
73	2.433333333333333	-2.51500275352089	0.8414307546168546	-0.5842838207711669	-2.5211775881050076	0.8025081458766743	-0.5053142661345447	-2.5005537447409267	0.47475605934769577	-0.4872109321261509	-2.5582476126561144	0.10270577290370672	-0.5050658815535618	-2.3646962584639626	0.0233707928553869	-0.4785800368286907	-2.407964391109793	0.024055298218919708	-0.41920362570127945	-2.605547434447015	0.03216711698498201	-0.5148252424186949	-2.5127390698203604	0.7996451200134236	-0.6680689130743326	-2.5240260191636605	0.44024080050971526	-0.655769986155117	-2.555949532719868	0.09992781806526659	-0.6524846072478339	-2.3874698923219198	0.01682048635633289	-0.6659483770117091	-2.4129362736413977	0.027802259705958166	-0.7205172543113016	-2.5977718075803833	0.03429665482722716	-0.6553202105634643	-2.490844059763731	1.4731799990145757	-0.6107744340933242	-2.458248401275938	1.7175316875457092	-0.5669670510983941	-2.3566488871789892	1.603865536263414	-0.5882563409907888	-2.5382383007706655	1.3668449489892265	-0.42981541345941077	-2.558081102083479	1.078881118769229	-0.40117576246128445	-2.5275324515474757	0.8511483782171058	-0.37984458902015417	-2.4902257978509077	1.3454785531393567	-0.780124015898024	-2.543517536488693	1.0704958994884637	-0.791707661275177	-2.5425249064686635	0.8345258732945549	-0.7851753077310326
74	2.466666666666667	-2.5144976916496518	0.8415388038535112	-0.5841291644959152	-2.520987797407751	0.802492517911309	-0.5054727117282913	-2.499979694463114	0.47483195264015554	-0.4870304409303462	-2.5613473880069355	0.0996937029365378	-0.51035891755952	-2.3645638749665308	0.023250766985206145	-0.47894690620128505	-2.408185021010927	0.02397986784042457	-0.4195598237311973	-2.6065465328928825	0.03120652524503162	-0.5160224173087864	-2.5125833436130725	0.7996998323292709	-0.667857075994938	-2.52378894381731	0.44017389446901317	-0.6562534823740503	-2.5563399153516952	0.09921948154933032	-0.6516441131197673	-2.387730277949057	0.017251127148610348	-0.6666576924484673	-2.415720362621138	0.026396677993210882	-0.7208612233283951	-2.599331682513167	0.03376659563376731	-0.6562150081842172	-2.4907815057957805	1.4731431397226942	-0.6113538526878441	-2.4578507651966874	1.717687129332645	-0.5675049987703884	-2.356595244028581	1.6037291272699585	-0.5892794327628477	-2.537814452681664	1.3661373006133442	-0.42860417333958406	-2.558352530745045	1.0792188262701246	-0.40173171360172255	-2.527292489598427	0.8513364355863835	-0.37940760286483316	-2.49044543032934	1.3455803805420143	-0.7801425648457425	-2.5430498979453318	1.0706639702373664	-0.7914828073988182	-2.5423797852671783	0.8349250702812384	-0.785458033836613
75	2.5	-2.5141520547768414	0.841517261242257	-0.5840186762855727	-2.5210051650883054	0.80255271005112	-0.5056667879632579	-2.4996158112886997	0.47475086762204033	-0.48708078176713077	-2.563047677573237	0.09788317451302053	-0.5135045884421241	-2.3645100293125827	0.022771202286381267	-0.4794514640784589	-2.4084544100195275	0.023797739734191723	-0.41972069426785175	-2.6072413128673197	0.03059010633414977	-0.5167184524398444	-2.5125085900146455	0.7998491878290623	-0.667839231554619	-2.523711139073666	0.44009814545184406	-0.65797005459941	-2.557316956188827	0.0979569795818804	-0.650713708561612	-2.3878824964944823	0.017926227741779318	-0.6675520008883621	-2.418434710722095	0.024709918400852113	-0.7211672483695558	-2.601232224951333	0.0331376641078678	-0.6570563971591096	-2.4908395279267688	1.473120531688124	-0.6120710811466608	-2.45730026255204	1.718002264095918	-0.5676612332177616	-2.3565062548784206	1.6035550497082203	-0.5900320880527553	-2.538081126232636	1.3666141488390797	-0.4294181974073009	-2.5589370349132396	1.07947365928477	-0.40312784993585443	-2.5271018974593047	0.8514051205835603	-0.37897688015661335	-2.490323211084792	1.3456144344648586	-0.7801760293506823	-2.5427366693063265	1.0706709760499291	-0.791327833354742	-2.5425076648854708	0.8353142746205255	-0.7859004083426563
76	2.533333333333333	-2.5140065533788096	0.8413861964368369	-0.5839371165552627	-2.521188547701944	0.8026733191157346	-0.5057740231790928	-2.499454622865515	0.4746004129175081	-0.48739282287830094	-2.563048094556136	0.09761090648020586	-0.5140491001695534	-2.364838648213058	0.02217418193660405	-0.47990073945058564	-2.408668278398539	0.02362444790540586	-0.4196418649594669	-2.6071315266932418	0.030678448656161872	-0.5164450059215253	-2.5124509830953228	0.8000318193829016	-0.6679366319267329	-2.523800969136496	0.43998775194382567	-0.6602453342918173	-2.558710413014858	0.09631121364198056	-0.6498653633755058	-2.3880054463388554	0.01835921504249006	-0.6681686831987725	-2.420486978315963	0.023254837665236342	-0.7214397386951991	-2.6027426767774404	0.0327542467042107	-0.6572668146453493	-2.490955603589606	1.4731323700058814	-0.612811114487089	-2.4566995523819197	1.7183298648637233	-0.5674392276349326	-2.3563707389696833	1.603440937690238	-0.5902757713880231	-2.538769333850195	1.3679042041969953	-0.43165555844608655	-2.559220268557964	1.079732738464603	-0.40418544366239895	-2.5269347228513106	0.8514611061992327	-0.378630732138157	-2.489922660872141	1.345556572792798	-0.7802674644465522	-2.542591919697241	1.0705560559685716	-0.7913332997996342	-2.5428294118669026	0.8357521519265048	-0.7864314797184223
77	2.566666666666667	-2.514029654994908	0.8412280532118566	-0.5838638983894778	-2.5214457904701	0.8028293004429878	-0.5057525443424914	-2.4994492889781816	0.47446591362611146	-0.4879192009140284	-2.56180513835924	0.09850670275669267	-0.5126784911271893	-2.3654269803184755	0.021806543489166174	-0.4801285921193756	-2.408798401456371	0.023571531615599148	-0.4193807554786843	-2.606140572848468	0.031503147552179644	-0.5152299343568143	-2.5123724869417496	0.8002161120191048	-0.6680715674547142	-2.52400126689094	0.43982833220395434	-0.6620458329358209	-2.560316143196103	0.09447550912065061	-0.6491004145308965	-2.388161997502518	0.018370515587237485	-0.6682642735079802	-2.4215730046974993	0.022542046182714704	-0.7218043512963644	-2.6033647660467887	0.032844008897841996	-0.6565871230142547	-2.4910445685692095	1.4731652492511031	-0.6134383752357617	-2.4562257687221574	1.71857610485505	-0.5670146892122652	-2.3561950586051337	1.603499015066149	-0.5899639790074875	-2.539480408796315	1.369278160539973	-0.4341642688679129	-2.5592979298358465	1.0799622646693818	-0.4048715762157739	-2.5267656192012184	0.8516327057680129	-0.37839161232443247	-2.489449731862099	1.3454151691074423	-0.7804351055546005	-2.5425729130490797	1.0703614338223755	-0.7915687758714653	-2.543189285459777	0.8362339889080328	-0.787000061346906
78	2.6	-2.514154621799346	0.8411362896768261	-0.5838008317838217	-2.521685322129837	0.8030058510421259	-0.5056595496979918	-2.4995443046878196	0.4744027842861321	-0.4885146432862326	-2.5603414612314843	0.09970468415096911	-0.5108642141961808	-2.365917402860917	0.021854704878568387	-0.4801311419366173	-2.4089068862800542	0.02364849355048653	-0.41909756991740293	-2.6050123390860724	0.03255602996537246	-0.5139349683861674	-2.5122729124743324	0.8004170529561998	-0.6682043656985018	-2.524209242541501	0.4396757909012031	-0.6628822806058893	-2.561633756084876	0.09295927669626641	-0.6485178690307556	-2.388340483733149	0.01810009767549613	-0.6679328893775426	-2.4215905345253548	0.022789966466458502	-0.7222944601764882	-2.603025533068367	0.03336265323975478	-0.655289221379923	-2.491061849966494	1.473166033420929	-0.6138220396977849	-2.456009805884552	1.7187141957477752	-0.5666017036054809	-2.3559827658289865	1.6037612052040218	-0.5892468792908255	-2.5400334299761433	1.3702955630744749	-0.43617446655634146	-2.559364369838274	1.0801364275124814	-0.4053519643726347	-2.5265962637937833	0.8519370595710851	-0.37823293887922776	-2.4890989220652013	1.345255095713118	-0.7806139005264328	-2.5426236579029804	1.070113603501861	-0.7920271437572	-2.543450112292268	0.8366580931636001	-0.7875566928475127
79	2.6333333333333333	-2.514348708128127	0.841154855684197	-0.5837873235695779	-2.521863259139862	0.8031897576567085	-0.5055667346051868	-2.499697307684621	0.47445207744239165	-0.4889750165246579	-2.5596406475011286	0.1003873237869731	-0.5100144521521144	-2.3660915632700408	0.022253169079640336	-0.48011917726107445	-2.4090518007310644	0.023783797821109016	-0.4189672500803359	-2.6048388392417414	0.033108045727526424	-0.5137152616970814	-2.512174714833019	0.8006449796190083	-0.6683069580131263	-2.524343463431111	0.4396027428580645	-0.6632195726454068	-2.5621200132830197	0.09232344884898318	-0.6483526124257133	-2.3884568855894064	0.017816679110820834	-0.6675219974460578	-2.4205388733215365	0.02374627600557134	-0.7226825374248453	-2.602145596361613	0.033973235692719775	-0.6540863804218349	-2.4910297783941746	1.473083027207859	-0.6139205597056214	-2.4560415054704485	1.7187747584849915	-0.56639640287804	-2.3557582097790717	1.6041560692618482	-0.5884628716493522	-2.540425206395367	1.3708907964277046	-0.43740369804043816	-2.5592319097136627	1.08027744700615	-0.4052963437379459	-2.52646450627352	0.8522368487747203	-0.37813075049708367	-2.4889336529143864	1.3451615541696502	-0.7806554003238106	-2.542713454441811	1.069832044022359	-0.7925890068168804	-2.5435586883487673	0.8368957386107276	-0.7880167791991841
